HIERARCHY
ROOT Beta:Hips
{
	OFFSET 0.00 0.00 0.00
	CHANNELS 6 Xposition Yposition Zposition Yrotation Xrotation Zrotation
	JOINT Beta:Spine
	{
		OFFSET	0.0000	9.2263	1.5771
		CHANNELS 3 Xrotation Yrotation Zrotation
		JOINT Beta:Spine1
		{
			OFFSET	0.0000	16.2540	-0.1656
			CHANNELS 3 Xrotation Yrotation Zrotation
			JOINT Beta:Spine2
			{
				OFFSET	0.0000	13.6396	-1.2923
				CHANNELS 3 Xrotation Yrotation Zrotation
				JOINT Beta:Neck
				{
					OFFSET	0.0000	13.8774	-4.3542
					CHANNELS 3 Xrotation Yrotation Zrotation
					JOINT Beta:Neck1
					{
						OFFSET	0.0000	4.3400	0.9269
						CHANNELS 3 Xrotation Yrotation Zrotation
						JOINT Beta:Head
						{
							OFFSET	0.0000	4.0266	0.8585
							CHANNELS 3 Xrotation Yrotation Zrotation
							End Site
							{
								OFFSET 0.0000 23.0297 0.1231
							}
						}
					}
				}
				JOINT Beta:LeftShoulder
				{
					OFFSET	6.1442	10.1870	-3.7932
					CHANNELS 3 Zrotation Xrotation Yrotation
					JOINT Beta:LeftArm
					{
						OFFSET	12.3191	-1.1130	-1.7935
						CHANNELS 3 Zrotation Xrotation Yrotation
						JOINT Beta:LeftForeArm
						{
							OFFSET	27.6870	0.0000	0.0000
							CHANNELS 3 Xrotation Zrotation Yrotation
							JOINT Beta:LeftHand
							{
								OFFSET	27.8738	0.0000	0.0000
								CHANNELS 3 Zrotation Yrotation Xrotation
								JOINT Beta:LeftHandThumb1
								{
									OFFSET	2.3785	-1.0029	2.6209
									CHANNELS 3 Zrotation Xrotation Yrotation
									JOINT Beta:LeftHandThumb2
									{
										OFFSET	3.3624	-1.0029	2.8398
										CHANNELS 3 Zrotation Xrotation Yrotation
										JOINT Beta:LeftHandThumb3
										{
											OFFSET	4.5018	-1.3445	2.1783
											CHANNELS 3 Zrotation Xrotation Yrotation
											End Site
											{
												OFFSET 2.6000 -1.0000 1.0000
											}
										}
									}
								}
								JOINT Beta:LeftHandMiddle1
								{
									OFFSET	10.4639	0.6148	0.4298
									CHANNELS 3 Zrotation Xrotation Yrotation
									JOINT Beta:LeftHandMiddle2
									{
										OFFSET	5.7921	0.0000	0.0000
										CHANNELS 3 Zrotation Xrotation Yrotation
										JOINT Beta:LeftHandMiddle3
										{
											OFFSET	3.7132	0.0000	0.0000
											CHANNELS 3 Zrotation Xrotation Yrotation
											End Site
											{
												OFFSET 2.3000 0.0000 0.0000
											}
										}
									}
								}
								JOINT Beta:LeftHandIndex1
								{
									OFFSET	10.3945	0.6148	2.7055
									CHANNELS 3 Zrotation Xrotation Yrotation
									JOINT Beta:LeftHandIndex2
									{
										OFFSET	5.5493	0.0000	0.0000
										CHANNELS 3 Zrotation Xrotation Yrotation
										JOINT Beta:LeftHandIndex3
										{
											OFFSET	3.3911	0.0000	0.0000
											CHANNELS 3 Zrotation Xrotation Yrotation
											End Site
											{
												OFFSET 2.5000 0.0000 0.0000
											}
										}
									}
								}
								JOINT Beta:LeftHandRing1
								{
									OFFSET	10.3252	0.3211	-1.8755
									CHANNELS 3 Zrotation Xrotation Yrotation
									JOINT Beta:LeftHandRing2
									{
										OFFSET	5.4452	0.0000	0.0000
										CHANNELS 3 Zrotation Xrotation Yrotation
										JOINT Beta:LeftHandRing3
										{
											OFFSET	3.7132	0.0000	0.0000
											CHANNELS 3 Zrotation Xrotation Yrotation
											End Site
											{
												OFFSET 2.0000 0.0000 0.0000
											}
										}
									}
								}
								JOINT Beta:LeftHandPinky1
								{
									OFFSET	10.0130	-0.0783	-3.9671
									CHANNELS 3 Zrotation Xrotation Yrotation
									JOINT Beta:LeftHandPinky2
									{
										OFFSET	3.6763	0.0000	0.0000
										CHANNELS 3 Zrotation Xrotation Yrotation
										JOINT Beta:LeftHandPinky3
										{
											OFFSET	2.8113	0.0000	0.0000
											CHANNELS 3 Zrotation Xrotation Yrotation
											End Site
											{
												OFFSET 2.9000 0.0000 0.0000
											}
										}
									}
								}
							}
						}
					}
				}
				JOINT Beta:RightShoulder
				{
					OFFSET	-6.1402	10.1870	-3.7932
					CHANNELS 3 Zrotation Xrotation Yrotation
					JOINT Beta:RightArm
					{
						OFFSET	-12.3231	-1.1130	-1.7935
						CHANNELS 3 Zrotation Xrotation Yrotation
						JOINT Beta:RightForeArm
						{
							OFFSET	-27.6870	0.0000	0.0000
							CHANNELS 3 Xrotation Zrotation Yrotation
							JOINT Beta:RightHand
							{
								OFFSET	-27.8738	0.0000	0.0000
								CHANNELS 3 Zrotation Yrotation Xrotation
								JOINT Beta:RightHandThumb1
								{
									OFFSET	-2.5178	-0.9367	2.5137
									CHANNELS 3 Zrotation Xrotation Yrotation
									JOINT Beta:RightHandThumb2
									{
										OFFSET	-3.2638	-1.0870	2.9669
										CHANNELS 3 Zrotation Xrotation Yrotation
										JOINT Beta:RightHandThumb3
										{
											OFFSET	-4.4165	-1.3703	2.1350
											CHANNELS 3 Zrotation Xrotation Yrotation
											End Site
											{
												OFFSET -2.6000 -1.0000 1.0000
											}
										}
									}
								}
								JOINT Beta:RightHandIndex1
								{
									OFFSET	-10.4665	0.4896	2.7120
									CHANNELS 3 Zrotation Xrotation Yrotation
									JOINT Beta:RightHandIndex2
									{
										OFFSET	-5.3768	0.0000	0.0000
										CHANNELS 3 Zrotation Xrotation Yrotation
										JOINT Beta:RightHandIndex3
										{
											OFFSET	-3.3855	0.0000	0.0000
											CHANNELS 3 Zrotation Xrotation Yrotation
											End Site
											{
												OFFSET -2.6000 0.0000 0.0000
											}
										}
									}
								}
								JOINT Beta:RightHandMiddle1
								{
									OFFSET	-10.7596	0.4896	0.4278
									CHANNELS 3 Zrotation Xrotation Yrotation
									JOINT Beta:RightHandMiddle2
									{
										OFFSET	-5.6168	0.0000	0.0000
										CHANNELS 3 Zrotation Xrotation Yrotation
										JOINT Beta:RightHandMiddle3
										{
											OFFSET	-3.7364	0.0000	0.0000
											CHANNELS 3 Zrotation Xrotation Yrotation
											End Site
											{
												OFFSET -2.3000 0.0000 0.0000
											}
										}
									}
								}
								JOINT Beta:RightHandRing1
								{
									OFFSET	-10.4702	0.3879	-1.9363
									CHANNELS 3 Zrotation Xrotation Yrotation
									JOINT Beta:RightHandRing2
									{
										OFFSET	-5.4013	0.0000	0.0000
										CHANNELS 3 Zrotation Xrotation Yrotation
										JOINT Beta:RightHandRing3
										{
											OFFSET	-3.3916	0.0000	0.0000
											CHANNELS 3 Zrotation Xrotation Yrotation
											End Site
											{
												OFFSET -2.2000 0.0000 0.0000
											}
										}
									}
								}
								JOINT Beta:RightHandPinky1
								{
									OFFSET	-9.9715	-0.1191	-3.9540
									CHANNELS 3 Zrotation Xrotation Yrotation
									JOINT Beta:RightHandPinky2
									{
										OFFSET	-3.6528	0.0000	0.0000
										CHANNELS 3 Zrotation Xrotation Yrotation
										JOINT Beta:RightHandPinky3
										{
											OFFSET	-2.7820	0.0000	0.0000
											CHANNELS 3 Zrotation Xrotation Yrotation
											End Site
											{
												OFFSET -2.9000 0.0000 0.0000
											}
										}
									}
								}
							}
						}
					}
				}
			}
		}
	}
	JOINT Beta:LeftUpLeg
	{
		OFFSET	9.6338	-3.2733	0.0000
		CHANNELS 3 Xrotation Yrotation Zrotation
		JOINT Beta:LeftLeg
		{
			OFFSET	0.0000	-41.7300	-1.7300
			CHANNELS 3 Xrotation Yrotation Zrotation
			JOINT Beta:LeftFoot
			{
				OFFSET	0.0126	-39.1900	-0.8477
				CHANNELS 3 Xrotation Yrotation Zrotation
				JOINT Beta:LeftToeBase
				{
					OFFSET	-0.1833	-12.1931	8.2823
					CHANNELS 3 Xrotation Yrotation Zrotation
					End Site
					{
						OFFSET 0.0000 0.0000 10.1681
					}
				}
			}
		}
	}
	JOINT Beta:RightUpLeg
	{
		OFFSET	-9.6338	-3.2733	0.0000
		CHANNELS 3 Xrotation Yrotation Zrotation
		JOINT Beta:RightLeg
		{
			OFFSET	0.0000	-41.7300	-1.7300
			CHANNELS 3 Xrotation Yrotation Zrotation
			JOINT Beta:RightFoot
			{
				OFFSET	0.0126	-39.1900	-0.8477
				CHANNELS 3 Xrotation Yrotation Zrotation
				JOINT Beta:RightToeBase
				{
					OFFSET	-0.1833	-12.1931	8.2823
					CHANNELS 3 Xrotation Yrotation Zrotation
					End Site
					{
						OFFSET 0.0032 0.0000 10.1681
					}
				}
			}
		}
	}
}
MOTION
Frames: 5
Frame Time: 0.0333333
4.5636 121.8398 -9.9647 2.0161 16.2627 -5.1057 12.6741 2.8682 0.1294 4.7752 1.7345 0.7959 4.7596 1.7309 0.6594 18.8921 -2.4345 -3.4805 -0.0000 0.0000 -0.0000 -32.0791 -12.0530 4.7243 25.9852 1.8137 -4.0927 17.5939 -17.2126 -23.4864 -0.0000 -0.0000 -50.3708 26.3795 0.7310 -34.1185 -2.0912 3.5945 2.2681 14.4053 -5.4428 -8.7322 -2.7227 -8.7601 -18.3918 -5.3477 0.0000 -1.4290 -17.8434 0.0000 -0.0000 -18.8607 -0.0000 0.0000 1.3179 0.4304 -17.8664 -17.1399 0.0000 0.0000 -7.7639 -0.0000 0.0000 -11.8839 0.0000 8.0204 -21.2132 0.0000 0.0000 -18.1636 0.0000 -0.0000 -18.2872 -0.1457 20.5208 -17.5170 0.0000 0.0000 -16.6122 0.0000 -0.0000 -29.5357 -2.0493 14.2737 12.8505 -24.1588 -16.3876 -0.0000 -0.0000 37.2918 -16.8187 -3.9279 -8.5919 2.8077 2.8612 1.3496 -21.3819 7.8471 11.2295 -7.8367 -9.7611 3.4707 5.5289 0.0390 21.6037 13.2123 -0.0000 -0.0000 4.0319 0.0000 -0.0000 9.2077 -0.0000 1.8543 12.0323 -0.0000 0.0000 13.0501 0.0000 0.0000 13.9045 0.0000 -5.4678 18.7631 0.0000 0.0000 15.6879 -0.0000 -0.0000 20.1363 0.0049 -16.5245 16.0552 0.0000 -0.0000 15.1794 0.0000 0.0000 -93.8036 5.3977 20.1358 105.3752 3.8560 0.4097 -8.2698 -0.3249 2.0921 -5.9555 -0.0000 -0.0000 -117.0180 4.5326 -9.5465 124.5443 -2.4552 0.1029 -7.0515 -1.4144 6.3870 -8.7383 0.0000 0.0000 
5.2190 119.2176 -8.6253 -0.3101 14.2316 -6.0145 11.9823 4.4285 1.2274 4.5037 2.1179 1.2840 4.4984 2.1281 1.1480 18.9288 -2.7244 -3.6196 -0.0000 0.0000 -0.0000 -30.1585 -11.6034 3.3983 27.9454 2.4956 -1.7179 13.2711 -8.0979 -22.9984 0.0000 0.0000 -55.0809 30.7916 -1.5022 -33.1969 -2.0843 3.6045 2.3209 13.6250 -3.1867 -8.5950 -3.9425 -8.1636 -21.3855 -4.8858 -0.0000 -1.4898 -17.8722 0.0000 -0.0000 -18.8898 0.0000 -0.0000 -0.1398 0.9309 -16.5418 -17.4816 0.0000 -0.0000 -8.1019 0.0000 -0.0000 -11.4667 -0.0000 8.0105 -20.9905 0.0000 -0.0000 -17.9420 -0.0000 0.0000 -17.2896 -0.1617 20.1837 -17.6464 0.0000 0.0000 -16.7412 -0.0000 0.0000 -28.8616 -2.4079 15.6282 11.1333 -21.4195 -15.5460 -0.0000 0.0000 37.9398 -19.7345 -2.8036 -8.2877 2.7348 2.9540 0.9040 -21.4624 7.7989 10.4158 -11.0686 -9.7613 3.4717 5.2997 0.0132 21.6535 11.8707 -0.0000 0.0000 2.9661 -0.0000 -0.0000 9.0550 0.0000 2.1472 11.7690 0.0000 0.0000 12.7970 0.0000 0.0000 14.4358 0.0000 -3.8885 16.7640 -0.0000 -0.0000 13.6701 0.0000 -0.0000 20.8113 -0.0409 -15.1879 14.0887 0.0000 -0.0000 13.2223 0.0000 0.0000 -80.5827 6.9589 22.8258 89.6607 3.4928 -1.3528 -3.0223 -0.3488 0.0458 -5.5375 -0.0000 0.0000 -118.0993 1.3712 -8.0355 128.9852 -4.6551 -0.8086 -4.7805 -1.4786 5.8878 -9.9831 0.0000 -0.0000 
6.1691 116.3667 -6.9272 -2.0927 12.2453 -6.7458 10.8940 5.4234 2.7819 4.0287 2.3571 1.6695 4.0246 2.3875 1.5362 19.3914 -2.8912 -3.5449 -0.0000 0.0000 -0.0000 -27.0878 -10.8435 2.2563 29.0915 3.2603 1.2102 7.5910 0.7104 -22.3716 0.0000 0.0000 -62.2038 36.9249 -3.7502 -29.5916 -2.0978 3.5866 2.2230 12.9576 -1.4113 -9.9613 -4.1976 -7.9784 -22.8274 -3.4809 -0.0000 -1.9619 -17.9190 -0.0000 0.0000 -18.9382 0.0000 -0.0000 -0.3934 1.1152 -16.2975 -17.9051 0.0000 -0.0000 -8.5229 -0.0000 0.0000 -10.6724 0.0000 8.1472 -20.9254 0.0000 -0.0000 -17.8774 0.0000 0.0000 -16.9180 -0.2116 20.0293 -18.1963 0.0000 -0.0000 -17.2892 0.0000 0.0000 -28.4950 -2.7727 16.8001 10.9364 -15.3920 -16.0256 -0.0000 -0.0000 40.6646 -24.1246 -2.2238 -5.9037 2.6328 3.0839 0.2751 -20.8759 7.7612 9.1684 -13.6298 -9.7608 3.3016 3.7113 -0.0040 21.2736 10.2193 -0.0000 0.0000 1.5718 -0.0000 -0.0000 8.6526 0.0000 2.7240 11.1713 -0.0000 -0.0000 12.2174 -0.0000 0.0000 13.2910 0.0000 -2.8287 14.5471 0.0000 0.0000 11.4448 0.0000 0.0000 18.9437 -0.0620 -15.0634 11.4009 0.0000 -0.0000 10.6696 0.0000 -0.0000 -66.6487 9.1942 22.7366 69.7762 -0.0660 -3.0493 5.7304 -0.7062 -2.9940 -5.6615 -0.0000 -0.0000 -110.6712 -0.5137 -7.8022 127.8441 -5.3996 -0.1617 -0.9625 -1.2891 6.3849 -10.5136 0.0000 -0.0000 
7.2238 112.8540 -4.3511 -2.9083 10.1036 -7.3490 9.4496 6.0854 4.4291 3.3800 2.5579 1.8888 3.3707 2.6059 1.7602 20.1101 -2.9900 -3.0700 -0.0000 0.0000 -0.0000 -22.9351 -10.4718 1.7054 28.5489 3.8818 4.1213 0.9370 7.7925 -19.9064 0.0000 0.0000 -71.8071 42.9928 -6.0641 -25.4696 -2.1206 3.5538 2.0493 13.1566 -2.0869 -11.8501 -4.0897 -8.1134 -22.8325 -2.8245 -0.0000 -2.3778 -18.0252 -0.0000 0.0000 -19.0461 -0.0000 0.0000 -0.2049 0.8975 -17.1919 -18.1829 0.0000 -0.0000 -8.8006 -0.0000 0.0000 -10.9013 -0.0000 8.3878 -21.2474 -0.0000 0.0000 -18.2000 -0.0000 0.0000 -17.3260 -0.2384 20.3766 -18.9251 0.0000 -0.0000 -18.0170 -0.0000 0.0000 -28.1144 -2.9592 17.4604 12.8560 -7.9088 -19.3438 -0.0000 0.0000 45.8389 -28.7310 -2.5636 -3.6052 2.5081 3.2422 -0.4999 -19.6797 7.7397 7.5642 -14.3219 -9.7573 2.4094 1.2620 -0.0028 19.7368 8.0531 0.0000 -0.0000 -0.5631 -0.0000 0.0000 6.6674 0.0000 2.9754 9.9734 -0.0000 0.0000 11.0301 -0.0000 -0.0000 9.1769 -0.0000 -2.9649 12.3831 -0.0000 0.0000 9.2884 0.0000 0.0000 13.4625 0.0471 -16.0391 8.8527 0.0000 0.0000 8.3523 -0.0000 -0.0000 -50.9285 10.2601 19.2638 46.9921 -3.1539 -2.6807 16.1755 -1.8471 -8.3520 -5.0751 0.0000 -0.0000 -96.0396 -1.3325 -8.5438 121.3744 -5.8671 1.3325 2.8929 -0.8712 7.6604 -9.4443 0.0000 0.0000 
7.9165 107.9048 -0.9961 -2.2252 7.4132 -7.8480 8.0232 6.4520 5.3324 2.7783 2.7772 1.8924 2.7664 2.8262 1.7731 20.3528 -3.0274 -1.9644 -0.0000 0.0000 -0.0000 -18.1976 -11.0419 2.5402 26.3107 4.1958 6.3712 -6.3734 12.0197 -13.7382 0.0000 -0.0001 -82.7995 45.2952 -8.2198 -23.5463 -2.0799 3.6068 2.3411 13.4873 -3.3812 -11.3115 -4.0210 -8.1520 -20.8311 -2.6528 0.0000 -2.6485 -18.1325 -0.0000 -0.0000 -19.1558 0.0000 -0.0000 -0.1703 0.6103 -17.2509 -18.2564 0.0000 -0.0000 -8.8748 0.0000 0.0000 -11.3502 -0.0000 8.0441 -21.7405 0.0000 0.0000 -18.6933 0.0000 0.0000 -18.0855 -0.2007 19.7739 -19.4645 0.0000 -0.0000 -18.5573 -0.0000 0.0000 -26.9357 -2.7508 17.4428 16.9198 -1.7049 -25.3738 0.0000 -0.0000 51.6248 -31.9858 -4.3864 -2.5463 2.3683 3.4194 -1.3773 -18.8024 7.7199 5.8445 -13.8896 -9.7526 1.4163 0.0713 0.0027 17.4944 6.0309 -0.0000 0.0000 -2.6989 -0.0000 -0.0000 3.7854 0.0000 2.6691 9.6103 -0.0000 0.0000 10.6625 -0.0000 -0.0000 4.9953 0.0000 -3.2770 10.8844 -0.0000 -0.0000 7.8026 0.0000 0.0000 8.8576 0.1856 -15.6700 7.4966 -0.0000 -0.0000 7.1052 0.0000 0.0000 -34.7046 9.5270 14.1809 26.4887 -2.8048 0.7805 22.8149 -3.1792 -12.4433 -4.9728 -0.0000 0.0000 -77.6712 -3.3446 -9.7358 110.3079 -7.7754 2.1811 5.6175 -0.3238 9.5442 -7.9647 0.0000 -0.0000 
